<svg width="64" height="64" viewBox="0 0 64 64" fill="none" xmlns="http://www.w3.org/2000/svg">
<rect width="1471" height="470" transform="translate(-486 -191)" fill="white"/>
<path fill-rule="evenodd" clip-rule="evenodd" d="M45.5 5C47.9853 5 50 7.01472 50 9.5V12.5C50 12.6692 49.9907 12.8363 49.9725 13.0007L55 13C57.2091 13 59 14.7909 59 17V55C59 57.2091 57.2091 59 55 59H9C6.79086 59 5 57.2091 5 55V17C5 14.7909 6.79086 13 9 13L14.0275 13.0007C14.0093 12.8363 14 12.6692 14 12.5V9.5C14 7.01472 16.0147 5 18.5 5C20.9853 5 23 7.01472 23 9.5V12.5C23 12.6692 22.9907 12.8363 22.9725 13.0007H41.0275C41.0093 12.8363 41 12.6692 41 12.5V9.5C41 7.01472 43.0147 5 45.5 5ZM45.0208 27.0503C43.8492 25.8787 41.9497 25.8787 40.7782 27.0503L30.1709 37.6561L25.2218 32.7071C24.0503 31.5355 22.1508 31.5355 20.9792 32.7071C19.8076 33.8787 19.8076 35.7782 20.9792 36.9497L28.0503 44.0208C29.2218 45.1924 31.1213 45.1924 32.2929 44.0208C32.2998 44.0139 32.3066 44.007 32.3135 44.0001L45.0208 31.2929C46.1924 30.1213 46.1924 28.2218 45.0208 27.0503Z" fill="#666666"/>
</svg>
