<svg width="64" height="64" viewBox="0 0 64 64" fill="none" xmlns="http://www.w3.org/2000/svg">
<rect width="64" height="64" fill="#F2F2F2"/>
<rect width="1471" height="470" transform="translate(-598 -191)" fill="white"/>
<path opacity="0.629464" fill-rule="evenodd" clip-rule="evenodd" d="M32 3C48.0163 3 61 15.9837 61 32C61 48.0163 48.0163 61 32 61C15.9837 61 3 48.0163 3 32C3 15.9837 15.9837 3 32 3ZM46.1421 17.8579C44.58 16.2958 42.0474 16.2958 40.4853 17.8579L32 26.3431L23.5147 17.8579C21.9526 16.2958 19.42 16.2958 17.8579 17.8579C16.2958 19.42 16.2958 21.9526 17.8579 23.5147L26.3424 31.9993L17.8579 40.4853C16.2958 42.0474 16.2958 44.58 17.8579 46.1421C19.42 47.7042 21.9526 47.7042 23.5147 46.1421L31.9993 37.6561L40.4853 46.1421C42.0474 47.7042 44.58 47.7042 46.1421 46.1421C47.7042 44.58 47.7042 42.0474 46.1421 40.4853L37.6569 32L46.1421 23.5147C47.7042 21.9526 47.7042 19.42 46.1421 17.8579Z" fill="#999999"/>
</svg>
