<svg width="64" height="64" viewBox="0 0 64 64" fill="none" xmlns="http://www.w3.org/2000/svg">
<rect width="1471" height="470" transform="translate(-374 -191)" fill="white"/>
<path fill-rule="evenodd" clip-rule="evenodd" d="M40.182 4L56 20V57C56 59.2091 54.2091 61 52 61H12C9.79086 61 8 59.2091 8 57V8.00033C8 5.79119 9.79086 4.00033 12 4.00033L40.182 4ZM42.9263 43.0557H20.0302C18.5728 43.0557 17.3913 44.2371 17.3913 45.6945C17.3913 47.1519 18.5728 48.3334 20.0302 48.3334H42.9263C44.3838 48.3334 45.5652 47.1519 45.5652 45.6945C45.5652 44.2371 44.3838 43.0557 42.9263 43.0557ZM42.9263 31.4446H20.0302C18.5728 31.4446 17.3913 32.6261 17.3913 34.0835C17.3913 35.5409 18.5728 36.7224 20.0302 36.7224H42.9263C44.3838 36.7224 45.5652 35.5409 45.5652 34.0835C45.5652 32.6261 44.3838 31.4446 42.9263 31.4446ZM38.2609 11.3892V21.0002C38.2609 22.0546 39.0767 22.9184 40.1116 22.9947L40.2609 23.0002H49.7391L38.2609 11.3892Z" fill="#666666"/>
</svg>
