<svg width="50" height="50" viewBox="0 0 50 50" fill="none" xmlns="http://www.w3.org/2000/svg">
<rect width="1471" height="470" transform="translate(-1235 -198)" fill="white"/>
<path fill-rule="evenodd" clip-rule="evenodd" d="M35.8618 8.63819C42.238 15.0144 43.2061 24.7508 38.766 32.1474L45.4631 41.2088C46.3458 42.403 46.2219 44.0632 45.1719 45.1133L45.1133 45.1719C44.0632 46.2219 42.403 46.3458 41.2088 45.4631L32.1474 38.766C24.7508 43.2061 15.0144 42.238 8.63819 35.8618C1.1206 28.3442 1.1206 16.1558 8.63819 8.63819C16.1558 1.1206 28.3442 1.1206 35.8618 8.63819ZM12.9692 12.9692C7.84359 18.0949 7.84359 26.4051 12.9692 31.5308C18.0949 36.6564 26.4051 36.6564 31.5308 31.5308C36.6564 26.4051 36.6564 18.0949 31.5308 12.9692C26.4051 7.84359 18.0949 7.84359 12.9692 12.9692Z" fill="#999999"/>
</svg>
