<svg width="64" height="64" viewBox="0 0 64 64" fill="none" xmlns="http://www.w3.org/2000/svg">
<rect width="1471" height="470" transform="translate(-246 -191)" fill="white"/>
<path fill-rule="evenodd" clip-rule="evenodd" d="M32 35C40.8366 35 48 27.8366 48 19C48 10.1634 40.8366 3 32 3C23.1634 3 16 10.1634 16 19C16 27.8366 23.1634 35 32 35ZM32 31.0012C38.6274 31.0012 44 25.6286 44 19.0012C43.1329 19.0014 42.0077 19.0011 40.4711 19.0007L40.4552 19.0007H40.4522H40.4485H40.4439H40.4384C38.4342 19.0002 35.7336 18.9995 32 18.9995C27.5091 18.9995 24.2832 19.0003 22.2032 19.0008L20 19.0012C20 25.6286 25.3726 31.0012 32 31.0012ZM8 36.3333C8 33.6667 10.56 31.7467 13.12 32.4933L32 38L50.88 32.4933C53.44 31.7467 56 33.6667 56 36.3333V38C56 36.8954 56.8954 36 58 36C59.1046 36 60 36.8954 60 38V50C60 51.1046 59.1046 52 58 52C56.8954 52 56 51.1046 56 50V52C56 53.7778 54.8267 55.3422 53.12 55.84L32 62L10.88 55.84C9.17333 55.3422 8 53.7778 8 52V49C8 50.1046 7.10457 51 6 51C4.89543 51 4 50.1046 4 49V37C4 35.8954 4.89543 35 6 35C7.10457 35 8 35.8954 8 37V36.3333Z" fill="#666666"/>
</svg>
