<svg width="64" height="64" viewBox="0 0 64 64" fill="none" xmlns="http://www.w3.org/2000/svg">
<rect width="1471" height="470" transform="translate(-122 -191)" fill="white"/>
<path fill-rule="evenodd" clip-rule="evenodd" d="M24.687 11.1705V11.1739L31.9929 18.483L21.4366 29.0465C19.9292 30.5579 19.8789 32.9737 21.2858 34.5455L21.4366 34.7049L31.9919 45.2669L24.687 52.5775C23.127 54.1416 20.5943 54.1425 19.0318 52.5809V52.5775L1.16953 34.7049C-0.389842 33.1414 -0.389842 30.61 1.16953 29.0465L19.0318 11.1739C20.5918 9.60972 23.1244 9.60883 24.687 11.1705ZM44.954 11.1705V11.1739L62.8163 29.0465C64.3756 30.61 64.3756 33.1414 62.8163 34.7049L44.954 52.5775C43.394 54.1416 40.8613 54.1425 39.2988 52.5809V52.5775L31.9919 45.2669L42.5492 34.7049C44.0566 33.1935 44.1069 30.7776 42.7 29.2059L42.5492 29.0465L31.9929 18.483L39.2988 11.1739C40.8588 9.60972 43.3915 9.60883 44.954 11.1705ZM33.4373 27.3304L36.8565 30.7518C37.6362 31.5336 37.6362 32.7991 36.8565 33.5809L33.4373 37.002C32.6573 37.7841 31.3909 37.7845 30.6096 37.0037C30.6094 37.0034 30.6091 37.0031 30.6096 37.002L27.1905 33.5809C26.4108 32.7991 26.4108 31.5336 27.1905 30.7518L30.6096 27.3304C31.3897 26.5483 32.656 26.5481 33.4373 27.3289C33.4376 27.3292 33.4378 27.3293 33.4373 27.3304Z" fill="#666666"/>
</svg>
